<?xml version="1.0" encoding="utf-8"?>
<!-- Generator: Adobe Illustrator 20.1.0, SVG Export Plug-In . SVG Version: 6.00 Build 0)  -->
<svg version="1.1" id="Layer_1" xmlns="http://www.w3.org/2000/svg" xmlns:xlink="http://www.w3.org/1999/xlink" x="0px" y="0px"
	 viewBox="0 0 32 32" style="enable-background:new 0 0 32 32;" xml:space="preserve">
<style type="text/css">
	.st0{fill:#262262;}
	.st1{fill:url(#SVGID_1_);}
</style>
<g>
	<ellipse class="st0" cx="16" cy="16" rx="16" ry="16"/>
	<linearGradient id="SVGID_1_" gradientUnits="userSpaceOnUse" x1="33.8642" y1="-1.7677" x2="-1.3159" y2="33.2356">
		<stop  offset="0" style="stop-color:#1FA2FF"/>
		<stop  offset="0.5" style="stop-color:#12D8FA"/>
		<stop  offset="1" style="stop-color:#A6FFCB"/>
	</linearGradient>
	<ellipse class="st1" cx="16" cy="16" rx="15.5" ry="15.5"/>
	<polygon class="st0" points="3.5,25.8 28.3,25.8 29.9,23.4 2,23.4 	"/>
	<g>
		
			<rect x="24.7" y="18.6" transform="matrix(-1.836970e-16 1 -1 -1.836970e-16 48.1032 -9.5063)" class="st0" width="8.2" height="1.4"/>
		
			<rect x="17" y="16.9" transform="matrix(-1.836970e-16 1 -1 -1.836970e-16 40.3729 -5.2263)" class="st0" width="11.6" height="1.4"/>
		
			<rect x="4.3" y="16.7" transform="matrix(-1.836970e-16 1 -1 -1.836970e-16 27.6718 7.1608)" class="st0" width="11.9" height="1.4"/>
		
			<rect x="0.2" y="18.6" transform="matrix(-1.836970e-16 1 -1 -1.836970e-16 23.5488 15.0481)" class="st0" width="8.2" height="1.4"/>
	</g>
	<g>
		<g>
			<path class="st0" d="M0.3,17.4C7.2,15,14.6,10.3,14.6,4.4h-1c0,2.3-1.4,4.7-4,6.9c-2.4,2-5.8,3.8-9.6,5.2L0.3,17.4z"/>
		</g>
	</g>
	<g>
		<g>
			<path class="st0" d="M31.8,17.2c-6.9-2.4-13.7-6.9-13.7-12.8h1c0,2.3,1.4,4.7,4,6.9c2.4,2,5,3.5,8.8,4.8L31.8,17.2z"/>
		</g>
	</g>
	<polygon class="st0" points="19.1,31.6 19.1,3.8 13.6,3.8 13.6,31.7 	"/>
</g>
</svg>
